{"title":"How To Train Your Dragon 2 2014 720p HDCAM NEW SOURCE x264 Pimp4","uid":10627782,"size":1575840624,"categoryP":"video","categoryS":"movies","magnet":"?xt=urn:btih:b5d002ef7d9abba7a900860bb1de548625f151e1&amp;dn=How+To+Train+Your+Dragon+2+2014+720p+HDCAM+NEW+SOURCE+x264+Pimp4&amp;tr=udp%3A%2F%2Ftracker.openbittorrent.com%3A80&amp;tr=udp%3A%2F%2Fopen.demonii.com%3A1337&amp;tr=udp%3A%2F%2Ftracker.coppersurfer.tk%3A6969&amp;tr=udp%3A%2F%2Fexodus.desync.com%3A6969","seeders":24,"leechers":1,"uploader":"shawnmurthy","files":3,"time":1406256619,"description":"[color=red][b]MUCH MUCH MUCH BETTER THEN THE FIRST CAM I UPLOADED....NO HEADS IN THE WAY OR ANYTHING...THANKS TO SPECTRE FOR THE SOURCE......THE OTHER ONES OUT RIGHT NOW LOOKS LIKE 3D VERSION THIS ONE IS 2D SO A LITTLE BIT MORE CLEAR IN THE VIDEO FIXED CONTRAST, BRIGHTENED VIDEO AND DID SOME CUTS TO MAKE SURE MOST SCENES ARE CLEAR TO WATCH....AUDIO IS GOOD SO DINT HAVE TO DO MUCH THERE.........ENJOY...PIMP4003 OUT[/b][/color]\n\nSOURCE-SPECTRE\n\n[IMG]http://i.imgur.com/Q7K4oJu.png[/IMG]\n\n[IMG]http://i.imgur.com/69uL5sU.jpg[/IMG]\n\n[URL=http://istoreimg.com/i/53d1a6452a1a7.html][IMG]http://istoreimg.com/upload/small/2014/07/25/53d1a6452a16b.jpg[/IMG][/URL]\n\nHow To Train Your Dragon 2 2014 720p HDCAM NEW SOURCE x264 Pimp4003\n\nENJOY\n\nPIMP4003\n\nVideo\nID                                       : 2\nFormat                                   : AVC\nFormat/Info                              : Advanced Video Codec\nFormat profile                           : &lt;a class=&quot;__cf_email__&quot; href=&quot;/cdn-cgi/l/email-protection&quot; data-cfemail=&quot;ca88abb9afa6a3a4af8a86f9e4fa&quot;&gt;[email&amp;#160;protected]&lt;/a&gt;&lt;script cf-hash='f9e31' type=&quot;text/javascript&quot;&gt;\n/* &lt;![CDATA[ */!function(){try{var t=&quot;currentScript&quot;in document?document.currentScript:function(){for(var t=document.getElementsByTagName(&quot;script&quot;),e=t.length;e--;)if(t[e].getAttribute(&quot;cf-hash&quot;))return t[e]}();if(t&amp;&amp;t.previousSibling){var e,r,n,i,c=t.previousSibling,a=c.getAttribute(&quot;data-cfemail&quot;);if(a){for(e=&quot;&quot;,r=parseInt(a.substr(0,2),16),n=2;a.length-n;n+=2)i=parseInt(a.substr(n,2),16)^r,e+=String.fromCharCode(i);e=document.createTextNode(e),c.parentNode.replaceChild(e,c)}}}catch(u){}}();/* ]]&gt; */&lt;/script&gt;\nFormat settings, CABAC                   : No\nFormat settings, ReFrames                : 1 frame\nFormat settings, GOP                     : M=1, N=25\nMuxing mode                              : Container profile=&lt;a class=&quot;__cf_email__&quot; href=&quot;/cdn-cgi/l/email-protection&quot; data-cfemail=&quot;80c2e1f3e5ece9eee5c0b4aeb1&quot;&gt;[email&amp;#160;protected]&lt;/a&gt;&lt;script cf-hash='f9e31' type=&quot;text/javascript&quot;&gt;\n/* &lt;![CDATA[ */!function(){try{var t=&quot;currentScript&quot;in document?document.currentScript:function(){for(var t=document.getElementsByTagName(&quot;script&quot;),e=t.length;e--;)if(t[e].getAttribute(&quot;cf-hash&quot;))return t[e]}();if(t&amp;&amp;t.previousSibling){var e,r,n,i,c=t.previousSibling,a=c.getAttribute(&quot;data-cfemail&quot;);if(a){for(e=&quot;&quot;,r=parseInt(a.substr(0,2),16),n=2;a.length-n;n+=2)i=parseInt(a.substr(n,2),16)^r,e+=String.fromCharCode(i);e=document.createTextNode(e),c.parentNode.replaceChild(e,c)}}}catch(u){}}();/* ]]&gt; */&lt;/script&gt;\nCodec ID                                 : avc1\nCodec ID/Info                            : Advanced Video Coding\nDuration                                 : 1h 32mn\nBit rate                                 : 2 100 Kbps\nWidth                                    : 1 280 pixels\nHeight                                   : 720 pixels\nDisplay aspect ratio                     : 16:9\nFrame rate mode                          : Constant\nFrame rate                               : 23.976 fps\nOriginal frame rate                      : 23.000 fps\nColor space                              : YUV\nChroma subsampling                       : 4:2:0\nBit depth                                : 8 bits\nScan type                                : Progressive\nBits/(Pixel*Frame)                       : 0.095\nStream size                              : 1.36 GiB (93%)\nWriting library                          : \nLanguage                                 : English\n\nAudio\nID                                       : 1\nFormat                                   : AAC\nFormat/Info                              : Advanced Audio Codec\nFormat profile                           : LC\nCodec ID                                 : 40\nDuration                                 : 1h 32mn\nBit rate mode                            : Constant\nBit rate                                 : 165 Kbps\nChannel(s)                               : 2 channels\nChannel positions                        : Front: L R\nSampling rate                            : 48.0 KHz\nCompression mode                         : Lossy\nStream size                              : 109 MiB (7%)\nLanguage                                 : English\n\n","torrent":{"xt":"urn:btih:b5d002ef7d9abba7a900860bb1de548625f151e1","amp;dn":"How+To+Train+Your+Dragon+2+2014+720p+HDCAM+NEW+SOURCE+x264+Pimp4","amp;tr":["udp%3A%2F%2Ftracker.openbittorrent.com%3A80","udp%3A%2F%2Fopen.demonii.com%3A1337","udp%3A%2F%2Ftracker.coppersurfer.tk%3A6969","udp%3A%2F%2Fexodus.desync.com%3A6969"],"infoHash":"b5d002ef7d9abba7a900860bb1de548625f151e1","infoHashBuffer":{"type":"Buffer","data":[181,208,2,239,125,154,187,167,169,0,134,11,177,222,84,134,37,241,81,225]},"announce":[],"urlList":[]}}